<?xml version="1.0" standalone="no"?><!DOCTYPE svg PUBLIC "-//W3C//DTD SVG 1.1//EN" "http://www.w3.org/Graphics/SVG/1.1/DTD/svg11.dtd"><svg t="1526540982091" class="icon" style="" viewBox="0 0 1024 1024" version="1.1" xmlns="http://www.w3.org/2000/svg" p-id="1441" xmlns:xlink="http://www.w3.org/1999/xlink" width="200" height="200"><defs><style type="text/css"></style></defs><path d="M894.635 168.444q32.894 32.894 48.884 73.553t15.991 83.605-15.991 83.605-48.884 73.553l-349.952 347.21q-32.894 32.894-80.863 54.822t-101.422 25.584-109.189-14.619-103.25-65.788q-46.599-46.599-64.873-100.965t-14.619-108.275 25.127-101.422 54.365-80.406l310.662-307.921q8.222-8.223 24.214-4.111t24.214 12.335q7.31 8.222 11.878 24.214t-3.654 24.214l-309.748 307.007q-24.669 24.669-41.117 57.563t-19.188 70.356 10.964 75.837 49.341 74.010q31.98 31.98 70.813 45.23t77.209 10.964 73.098-16.904 59.392-39.29l349.037-346.297q24.669-24.669 35.179-51.167t10.051-52.538-12.335-50.71-32.894-45.686q-39.29-38.376-88.173-36.092t-98.225 51.625l-315.231 313.402q-21.015 21.015-20.558 46.599t16.904 42.031q20.102 20.102 46.142 16.447t42.488-20.102l285.992-284.164q8.222-8.222 24.214-4.111t24.214 12.335 12.793 24.214-3.654 24.214l-286.905 284.164q-32.894 32.894-63.046 45.686t-56.65 11.421-49.341-14.162-42.031-31.066q-15.533-14.619-27.868-37.462t-14.162-50.253 9.595-58.478 44.315-63.046q16.447-16.447 29.238-30.153 10.964-11.878 20.558-21.015t10.507-10.051l254.926-254.012q32.894-32.894 71.726-51.625t79.036-21.472 79.036 10.964 71.726 46.599z" p-id="1442"></path></svg>