<?xml version="1.0" standalone="no"?>
<!DOCTYPE svg PUBLIC "-//W3C//DTD SVG 1.1//EN" "http://www.w3.org/Graphics/SVG/1.1/DTD/svg11.dtd" >
<!--
2013-9-30: Created.
-->
<svg>
<metadata>
Created by iconfont
</metadata>
<defs>

<font id="icon" horiz-adv-x="1024" >
  <font-face
    font-family="icon"
    font-weight="500"
    font-stretch="normal"
    units-per-em="1024"
    ascent="896"
    descent="-128"
  />
    <missing-glyph />
    
    <glyph glyph-name="custom" unicode="&#58916;" d="M362.338462 423.384615H267.815385C204.8 423.384615 157.538462 470.646154 157.538462 533.661538V628.184615C157.538462 691.2 204.8 738.461538 267.815385 738.461538h98.461538C425.353846 738.461538 472.615385 691.2 472.615385 628.184615v-98.461538c0-59.076923-47.261538-106.338462-110.276923-106.338462zM267.815385 679.384615c-27.569231 0-47.261538-23.630769-47.261539-47.261538v-98.461539c0-27.569231 23.630769-47.261538 47.261539-47.261538h98.461538c27.569231 0 47.261538 23.630769 47.261539 47.261538V628.184615c0 27.569231-23.630769 47.261538-47.261539 47.261539H267.815385zM708.923077 395.815385h-3.938462c-31.507692 0-59.076923 15.753846-82.707692 43.323077-11.815385 11.815385-7.876923 31.507692 3.938462 43.323076 11.815385 11.815385 31.507692 7.876923 43.323077-3.938461 11.815385-15.753846 27.569231-23.630769 39.384615-23.630769 11.815385 0 19.692308 3.938462 23.630769 7.876923L827.076923 553.353846c15.753846 11.815385 15.753846 35.446154 0 51.2L736.492308 699.076923c-11.815385 15.753846-35.446154 15.753846-51.2 0L590.769231 608.492308c-7.876923-7.876923-11.815385-15.753846-11.815385-27.569231 0-15.753846 7.876923-27.569231 19.692308-39.384615 11.815385-11.815385 11.815385-27.569231 3.938461-43.323077-11.815385-11.815385-27.569231-11.815385-43.323077-3.938462-27.569231 23.630769-39.384615 51.2-43.323076 82.707692 0 27.569231 11.815385 55.138462 27.56923 70.892308L638.030769 738.461538c43.323077 39.384615 106.338462 39.384615 141.784616 0l90.584615-94.523076c35.446154-35.446154 35.446154-98.461538-3.938462-133.907693l-94.523076-90.584615c-15.753846-15.753846-39.384615-23.630769-63.015385-23.630769zM362.338462 29.538462H267.815385C204.8 29.538462 157.538462 76.8 157.538462 139.815385v98.461538C157.538462 297.353846 204.8 344.615385 267.815385 344.615385h98.461538c59.076923 0 110.276923-47.261538 110.276923-110.276923v-98.461539C472.615385 76.8 425.353846 29.538462 362.338462 29.538462z m-94.523077 256c-27.569231 0-47.261538-23.630769-47.261539-47.261539v-98.461538c0-27.569231 23.630769-47.261538 47.261539-47.261539h98.461538c27.569231 0 47.261538 23.630769 47.261539 47.261539v98.461538c0 27.569231-23.630769 47.261538-47.261539 47.261539H267.815385zM760.123077 29.538462h-98.461539c-59.076923 0-110.276923 47.261538-110.276923 110.276923v98.461538c0 59.076923 47.261538 110.276923 110.276923 110.276923h98.461539c59.076923 0 110.276923-47.261538 110.276923-110.276923v-98.461538c-3.938462-63.015385-51.2-110.276923-110.276923-110.276923z m-98.461539 256c-27.569231 0-47.261538-23.630769-47.261538-47.261539v-98.461538c0-27.569231 23.630769-47.261538 47.261538-47.261539h98.461539c27.569231 0 47.261538 23.630769 47.261538 47.261539v98.461538c0 27.569231-23.630769 47.261538-47.261538 47.261539h-98.461539z"  horiz-adv-x="1024" />

    
    <glyph glyph-name="customize" unicode="&#58915;" d="M512 754.346667a29.013333 29.013333 0 0 0 0-58.026667A312.32 312.32 0 1 1 824.32 384a29.013333 29.013333 0 0 0 58.026667 0c0-204.526933-165.819733-370.346667-370.346667-370.346667S141.653333 179.47306700000001 141.653333 384 307.473067 754.346667 512 754.346667zM792.644267 715.844267l-261.290667-235.281067L512 398.916267l84.514133 9.864533 261.0176 235.008-64.887466 72.055467z m123.972266-50.9952a34.133333 34.133333 0 0 0-2.525866-48.196267L621.568 353.28l-136.738133-15.9744a34.133333 34.133333 0 0 0-37.205334 41.7792l31.4368 132.5056 292.522667 263.3728a34.133333 34.133333 0 0 0 48.196267-2.525867l96.836266-107.588266zM355.1232 461.141333a29.013333 29.013333 0 0 0 55.261867-17.749333 124.586667 124.586667 0 0 1 118.6816-162.6112 29.013333 29.013333 0 0 0 0-58.026667 182.613333 182.613333 0 0 0-173.943467 238.353067z"  horiz-adv-x="1024" />

    
    <glyph glyph-name="warning-i" unicode="&#58895;" d="M468.114286 274.285714c7.314286-21.942857 21.942857-36.571429 43.885714-36.571428s36.571429 14.628571 43.885714 36.571428L585.142857 676.571429c0 43.885714-36.571429 73.142857-73.142857 73.142857-43.885714 0-73.142857-36.571429-73.142857-80.457143l29.257143-394.971429zM512 164.57142899999997c-43.885714 0-73.142857-29.257143-73.142857-73.142858s29.257143-73.142857 73.142857-73.142857 73.142857 29.257143 73.142857 73.142857-29.257143 73.142857-73.142857 73.142858z"  horiz-adv-x="1024" />

    
    <glyph glyph-name="success-i" unicode="&#58880;" d="M122.2656 330.95680000000004c-9.9328 9.9328-11.5712 25.3952-2.7648 36.4544l20.48 25.8048c8.3968 10.5472 24.064 13.2096 35.2256 5.8368l177.3568-118.3744c9.3184-6.2464 25.4976-5.4272 34.2016 1.6384L855.3472 662.528c10.5472 8.4992 27.0336 7.7824 36.2496-1.4336l11.5712-11.5712c10.0352-10.0352 9.3184-25.9072-1.2288-36.4544L398.9504 110.89919999999995c-15.6672-15.6672-41.3696-14.9504-57.4464 1.1264L122.2656 330.95680000000004z"  horiz-adv-x="1024" />

    
    <glyph glyph-name="camera" unicode="&#58914;" d="M149.661538 561.230769c-11.815385 0-23.630769-7.876923-23.630769-19.692307v-472.615385c0-11.815385 7.876923-19.692308 19.692308-19.692308h728.615385c11.815385 0 19.692308 7.876923 19.692307 19.692308V541.538462c0 11.815385-7.876923 19.692308-19.692307 19.692307h-110.276924c-27.569231 0-55.138462 19.692308-59.076923 47.261539L697.107692 659.692308c0 7.876923-7.876923 15.753846-19.692307 15.753846H366.276923c-7.876923 0-19.692308-7.876923-19.692308-15.753846l-7.876923-51.2c-3.938462-27.569231-31.507692-47.261538-59.076923-47.261539H149.661538zM279.630769 620.307692l7.876923 51.2c7.876923 39.384615 39.384615 66.953846 78.769231 66.953846h311.138462c39.384615 0 70.892308-27.569231 78.76923-66.953846l7.876923-51.2h110.276924c43.323077 0 78.769231-35.446154 78.76923-78.76923v-472.615385c0-43.323077-35.446154-78.769231-78.76923-78.769231H149.661538c-43.323077 0-78.769231 35.446154-78.76923 78.769231V541.538462c0 43.323077 35.446154 78.769231 78.76923 78.76923h129.969231zM512 139.815385c-106.338462 0-192.984615 86.646154-192.984615 192.984615s86.646154 192.984615 192.984615 192.984615 192.984615-86.646154 192.984615-192.984615-86.646154-192.984615-192.984615-192.984615z m0 59.076923c74.830769 0 133.907692 59.076923 133.907692 133.907692s-59.076923 133.907692-133.907692 133.907692-133.907692-59.076923-133.907692-133.907692 59.076923-133.907692 133.907692-133.907692z"  horiz-adv-x="1024" />

    
    <glyph glyph-name="warning" unicode="&#59235;" d="M512 832C264.6 832 64 631.4 64 384s200.6-448 448-448 448 200.6 448 448S759.4 832 512 832z m43.3-652c-9.3-9.1-20-14.6-31.9-16.7-3.8-0.2-7.5-0.3-11.4-0.3s-7.6 0.1-11.4 0.3c-12 2.1-22.6 7.7-31.9 16.7-12.1 11.9-18.1 26.1-18.1 43 0 16.7 6 31.2 18.1 43.3 12.1 12.1 26.6 18.2 43.3 18.2 16.7 0 31.2-6.1 43.3-18.2 12.1-12.1 18.1-26.6 18.1-43.3 0.1-16.8-5.9-31.2-18.1-43z m-13.9 141.3h-57.7c-7 85.4-33 202.8-33 218.8 0 18.3 5.7 33.7 17.2 46.1 11.6 12.5 26.2 18.8 44.2 18.8 17.9 0 32.6-6.2 44.2-18.5 11.5-12.4 17.2-27.8 17.2-46.4 0-16-24-133.4-32.1-218.8z"  horiz-adv-x="1024" />

    
    <glyph glyph-name="pay-wechat" unicode="&#58887;" d="M0 407.04v30.72C2.56 465.92 7.68 491.52 15.36 517.12c20.48 66.56 53.76 122.88 99.84 171.52C179.2 757.76 256 801.28 340.48 829.44c48.64 15.36 97.28 23.04 145.92 25.6 40.96 2.56 79.36 0 120.32-7.68 33.28-5.12 64-12.8 97.28-25.6 79.36-28.16 148.48-71.68 207.36-133.12 7.68-7.68 12.8-15.36 20.48-23.04-2.56 0-2.56-2.56-5.12-2.56-20.48-10.24-40.96-20.48-61.44-28.16-143.36-66.56-286.72-133.12-430.08-197.12-28.16-12.8-56.32-10.24-81.92 5.12-20.48 12.8-38.4 25.6-58.88 38.4-12.8 10.24-25.6 17.92-40.96 28.16-12.8 7.68-20.48 2.56-20.48-12.8v-2.56c2.56-12.8 5.12-25.6 10.24-38.4 25.6-61.44 51.2-120.32 76.8-181.76 7.68-17.92 20.48-25.6 35.84-23.04 10.24 0 20.48 2.56 28.16 7.68 30.72 15.36 58.88 33.28 87.04 51.2 156.16 92.16 309.76 184.32 465.92 276.48 10.24 7.68 23.04 12.8 33.28 20.48 0-2.56 2.56-2.56 2.56-5.12 5.12-10.24 10.24-17.92 12.8-28.16 28.16-61.44 40.96-125.44 35.84-192-2.56-28.16-7.68-56.32-15.36-84.48-17.92-61.44-48.64-115.2-92.16-163.84-51.2-56.32-115.2-99.84-184.32-128-40.96-15.36-81.92-28.16-122.88-35.84-28.16-5.12-56.32-7.68-81.92-7.68h-46.08c-20.48 2.56-40.96 2.56-58.88 5.12-30.72 5.12-61.44 12.8-89.6 23.04H322.56c-12.8-7.68-23.04-15.36-35.84-23.04-28.16-17.92-53.76-33.28-81.92-48.64-5.12-2.56-12.8-5.12-17.92-5.12s-10.24 2.56-10.24 10.24c0 5.12 0 12.8 2.56 17.92 5.12 38.4 12.8 74.24 20.48 112.64 0 5.12 0 7.68-5.12 10.24-15.36 12.8-30.72 23.04-46.08 38.4-51.2 46.08-92.16 102.4-117.76 166.4C20.48 296.96000000000004 12.8 327.67999999999995 7.68 358.4c-2.56 12.8-2.56 25.6-2.56 40.96-5.12 0-5.12 2.56-5.12 7.68z"  horiz-adv-x="1024" />

    
    <glyph glyph-name="alipay" unicode="&#58890;" d="M230.4 319.48800000000006c-12.288-9.728-25.088-24.064-28.672-41.984-5.12-24.576-1.024-55.296 22.528-79.872 28.672-29.184 72.704-37.376 91.648-38.912 51.2-3.584 105.984 22.016 147.456 50.688 16.384 11.264 44.032 34.304 70.144 69.632-59.392 30.72-133.632 64.512-212.48 61.44-40.448-1.536-69.632-9.728-90.624-20.992z m752.64-135.68c26.112 61.44 40.96 129.024 40.96 200.192C1024 666.112 794.112 896 512 896S0 666.112 0 384s229.888-512 512-512c170.496 0 321.536 83.968 414.72 211.968-88.064 43.52-232.96 115.712-322.56 159.232-42.496-48.64-105.472-97.28-176.64-118.272-44.544-13.312-84.992-18.432-126.976-9.728-41.984 8.704-72.704 28.16-90.624 47.616-9.216 10.24-19.456 22.528-27.136 37.888 0.512-1.024 1.024-2.048 1.024-3.072 0 0-4.608 7.68-7.68 19.456-1.536 6.144-3.072 11.776-3.584 17.92-0.512 4.096-0.512 8.704 0 12.8-0.512 7.68 0 15.872 1.536 24.064 4.096 20.48 12.8 44.032 35.328 65.536 49.152 48.128 114.688 50.688 148.992 50.176 50.176-0.512 138.24-22.528 211.968-48.64 20.48 43.52 33.792 90.112 41.984 121.344h-307.2v33.28h157.696v66.56H272.384V593.9200000000001h190.464V660.48c0 9.216 2.048 16.384 16.384 16.384h74.752V593.9200000000001h207.36v-33.28h-207.36v-66.56h165.888s-16.896-92.672-68.608-184.32c115.2-40.96 278.016-104.448 331.776-125.952z"  horiz-adv-x="1024" />

    
    <glyph glyph-name="phone" unicode="&#58894;" d="M887.466667 564.906667c-20.48 51.2-54.613333 98.986667-92.16 139.946666-40.96 40.96-85.333333 71.68-139.946667 92.16-51.2 20.48-105.813333 34.133333-163.84 34.133334-54.613333 0-112.64-10.24-163.84-34.133334-47.786667-23.893333-95.573333-54.613333-133.12-95.573333-40.96-37.546667-71.68-85.333333-92.16-136.533333-20.48-51.2-34.133333-105.813333-34.133333-163.84 0-54.613333 10.24-112.64 34.133333-163.84 20.48-51.2 54.613333-98.986667 92.16-139.946667 40.96-40.96 85.333333-71.68 139.946667-92.16 51.2-20.48 105.813333-34.133333 163.84-34.133333 54.613333 0 112.64 10.24 163.84 34.133333 51.2 20.48 98.986667 54.613333 139.946666 92.16 40.96 40.96 71.68 85.333333 92.16 139.946667 20.48 51.2 34.133333 105.813333 34.133334 163.84-6.826667 54.613333-17.066667 112.64-40.96 163.84z m-187.733334-303.786667c-6.826667-34.133333-40.96-68.266667-102.4-75.093333-78.506667-10.24-307.2 129.706667-307.2 320.853333C293.546667 599.04 327.68 622.933333 368.64 622.933333c40.96 0 88.746667-116.053333 64.853333-126.293333-20.48-10.24-51.2-10.24-51.2-51.2 0-27.306667 129.706667-167.253333 153.6-167.253333 40.96 3.413333 30.72 51.2 64.853334 64.853333 20.48 3.413333 105.813333-47.786667 98.986666-81.92z"  horiz-adv-x="1024" />

    
    <glyph glyph-name="wechat" unicode="&#58896;" d="M974.451613 337.75483899999995c0 128.825806-125.522581 231.225806-277.470968 231.225806s-277.470968-102.4-277.470968-231.225806 125.522581-231.225806 277.470968-231.225807c26.425806 0 56.154839 3.303226 82.580645 9.909678l89.187097-46.245162-23.122581 66.064517c79.277419 46.245161 128.825806 115.612903 128.825807 201.496774z m-373.264516 36.335484c-26.425806 0-46.245161 19.819355-46.245162 46.245161s19.819355 46.245161 46.245162 46.245161 46.245161-19.819355 46.245161-46.245161c0-23.122581-23.122581-46.245161-46.245161-46.245161z m188.283871 0c-26.425806 0-46.245161 19.819355-46.245162 46.245161s19.819355 46.245161 46.245162 46.245161 46.245161-19.819355 46.245161-46.245161c0-23.122581-23.122581-46.245161-46.245161-46.245161zM373.264516 344.36129000000005c0 142.03871 138.735484 257.651613 313.806452 257.651613h13.212903c-36.335484 118.916129-161.858065 211.406452-320.412903 211.406452-181.677419 3.303226-330.322581-122.219355-330.322581-274.167742 0-95.793548 59.458065-184.980645 151.948387-231.225807l-26.425806-82.580645L280.774194 274.99354800000003c33.032258-9.909677 66.064516-13.212903 102.4-13.212903h9.909677c-16.516129 29.729032-19.819355 56.154839-19.819355 82.580645z m125.522581 376.567742c33.032258 0 59.458065-26.425806 59.458064-59.458064S531.819355 598.709677 498.787097 598.709677c-33.032258 3.303226-59.458065 33.032258-59.458065 66.064517s26.425806 56.154839 59.458065 56.154838zM270.864516 605.316129C237.832258 605.316129 214.709677 631.741935 214.709677 664.774194s26.425806 59.458065 59.458065 59.458064S330.322581 697.806452 330.322581 664.774194s-26.425806-59.458065-59.458065-59.458065z"  horiz-adv-x="1024" />

    
    <glyph glyph-name="edit2" unicode="&#58897;" d="M858.584615 9.846153999999956H216.615385c-59.076923 0-110.276923 47.261538-110.276923 110.276923V576.9846150000001c0 59.076923 47.261538 110.276923 110.276923 110.276923h275.692307c15.753846 0 31.507692-11.815385 31.507693-31.507692s-11.815385-31.507692-31.507693-31.507692h-275.692307c-27.569231 0-47.261538-23.630769-47.261539-47.261539v-460.8c0-27.569231 23.630769-47.261538 47.261539-47.261538h641.96923c27.569231 0 47.261538 23.630769 47.261539 47.261538v212.676923c0 15.753846 11.815385 31.507692 27.569231 31.507693 15.753846 0 31.507692-11.815385 31.507692-27.569231v-212.676923c0-63.015385-47.261538-110.276923-106.338462-110.276923zM515.938462 250.092308c-11.815385 0-27.569231 7.876923-31.507693 19.692307-3.938462 7.876923-3.938462 15.753846 0 23.63077l23.630769 66.953846c0 3.938462 3.938462 7.876923 7.876924 11.815384l185.107692 192.984616c11.815385 11.815385 31.507692 11.815385 43.323077 0 11.815385-11.815385 11.815385-31.507692 0-43.323077l-181.169231-185.107692-3.938462-7.876924 11.815385 3.938462 366.276923 350.523077-23.630769 15.753846L787.692308 573.046154c-11.815385-11.815385-31.507692-11.815385-43.323077 0-11.815385 11.815385-11.815385 31.507692 0 43.323077l145.723077 149.661538c11.815385 11.815385 27.569231 11.815385 39.384615 0l63.015385-59.076923c7.876923-3.938462 7.876923-11.815385 7.876923-19.692308s-3.938462-15.753846-7.876923-19.692307l-393.846154-374.153846c-3.938462-3.938462-3.938462-3.938462-7.876923-3.938462l-66.953846-27.569231c0-11.815385-3.938462-11.815385-7.876923-11.815384zM693.169231 151.630769H330.830769c-15.753846 0-31.507692 11.815385-31.507692 31.507693s11.815385 31.507692 31.507692 31.507692h362.338462c15.753846 0 31.507692-11.815385 31.507692-31.507692s-15.753846-31.507692-31.507692-31.507693z"  horiz-adv-x="1024" />

    
    <glyph glyph-name="home" unicode="&#58898;" d="M768-0.8874670000000151H235.52c-34.133333 0-61.44 27.306667-61.44 58.026667v262.826667h-10.24c-40.96 0-71.68 30.72-71.68 68.266666 0 17.066667 6.826667 34.133333 20.48 47.786667l337.92 307.2c27.306667 23.893333 71.68 27.306667 98.986667 0 0 0 10.24-6.826667 174.08-157.013333l167.253333-153.6c13.653333-13.653333 20.48-30.72 20.48-47.786667 0-17.066667-10.24-37.546667-23.893333-47.786667-13.653333-10.24-30.72-17.066667-47.786667-17.066666h-10.24v-262.826667c0-30.72-27.306667-58.026667-61.44-58.026667z m-535.893333 61.44h535.893333c3.413333 0 3.413333 0 3.413333 3.413334v320.853333h68.266667c3.413333 0 6.826667 0 10.24 3.413333 0 0 3.413333 3.413333 3.413333 6.826667s0 3.413333-3.413333 6.826667l-167.253333 153.6c-112.64 102.4-170.666667 153.6-170.666667 157.013333-6.826667 3.413333-17.066667 3.413333-23.893333 0l-337.92-307.2c-3.413333 0-3.413333-3.413333-3.413334-6.826667s6.826667-10.24 13.653334-10.24h68.266666l3.413334-327.68zM512 332.79999999999995c-47.786667 0-92.16 6.826667-136.533333 23.893333-13.653333 6.826667-23.893333 23.893333-17.066667 37.546667s23.893333 23.893333 37.546667 17.066667c78.506667-27.306667 157.013333-27.306667 238.933333 0 13.653333 6.826667 30.72-3.413333 37.546667-17.066667 6.826667-13.653333-3.413333-30.72-17.066667-37.546667-51.2-17.066667-98.986667-23.893333-143.36-23.893333z"  horiz-adv-x="1024" />

    
    <glyph glyph-name="logo" unicode="&#58899;" d="M173.886792 683.4716980000001h579.622642l115.924528-193.207547H289.811321zM173.886792 258.41509399999995h579.622642l115.924528-193.207547H289.811321zM869.433962 470.943396H289.811321L173.886792 277.73584900000003h579.622642z"  horiz-adv-x="1024" />

    
    <glyph glyph-name="map" unicode="&#58900;" d="M508.061538-49.23076900000001c252.061538 224.492308 378.092308 405.661538 378.092308 539.569231C886.153846 695.138462 720.738462 860.553846 515.938462 860.553846S141.784615 699.076923 141.784615 494.276923c0-137.846154 122.092308-319.015385 366.276923-543.507692zM504.123077 502.153846m-204.8 0a204.8 204.8 0 1 1 409.6 0 204.8 204.8 0 1 1-409.6 0ZM350.523077-64.98461499999996h307.2v-51.2H350.523077zM208.738462 545.4769229999999c-11.815385 0-19.692308 7.876923-19.692308 19.692308 0 94.523077 55.138462 169.353846 161.476923 220.553846 11.815385 3.938462 23.630769 0 27.569231-7.876923 3.938462-7.876923 0-19.692308-7.876923-27.569231-94.523077-43.323077-141.784615-106.338462-141.784616-185.107692 0-7.876923-7.876923-19.692308-19.692307-19.692308z"  horiz-adv-x="1024" />

    
    <glyph glyph-name="user" unicode="&#58901;" d="M512 332.79999999999995h-10.24c-105.813333 0-194.56 88.746667-194.56 197.973333S395.946667 725.333333 501.76 725.333333H716.8v-187.733333c0-112.64-92.16-204.8-204.8-204.8z m-10.24 334.506667c-75.093333 0-136.533333-61.44-136.533333-136.533334s61.44-136.533333 136.533333-136.533333h10.24c81.92 0 146.773333 64.853333 146.773333 146.773333V667.3066670000001h-157.013333zM740.693333-25.600000000000023H283.306667C201.386667-25.600000000000023 136.533333 39.253333 136.533333 121.17333299999996s64.853333 146.773333 146.773334 146.773334h457.386666c81.92 0 146.773333-64.853333 146.773334-146.773334S822.613333-25.600000000000023 740.693333-25.600000000000023zM283.306667 209.91999999999996c-47.786667 0-88.746667-40.96-88.746667-88.746667 0-47.786667 40.96-88.746667 88.746667-88.746666h457.386666c47.786667 0 88.746667 40.96 88.746667 88.746666 0 47.786667-40.96 88.746667-88.746667 88.746667H283.306667zM638.293333 93.866667h-252.586666c-20.48 0-34.133333 13.653333-34.133334 34.133333s13.653333 34.133333 34.133334 34.133333h249.173333c20.48 0 34.133333-13.653333 34.133333-34.133333s-13.653333-34.133333-30.72-34.133333z"  horiz-adv-x="1024" />

    
    <glyph glyph-name="success" unicode="&#58902;" d="M512 384m-455.111111 0a455.111111 455.111111 0 1 1 910.222222 0 455.111111 455.111111 0 1 1-910.222222 0ZM512-99.55555600000002C244.622222-99.55555600000002 28.444444 116.62222199999997 28.444444 384S244.622222 867.555556 512 867.555556s483.555556-216.177778 483.555556-483.555556-216.177778-483.555556-483.555556-483.555556z m0 910.222223C278.755556 810.666667 85.333333 617.2444439999999 85.333333 384s193.422222-426.666667 426.666667-426.666667 426.666667 193.422222 426.666667 426.666667S745.244444 810.666667 512 810.666667zM455.111111 184.88888899999995c-11.377778 0-22.755556 5.688889-34.133333 11.377778L250.311111 384c-11.377778 17.066667-11.377778 45.511111 5.688889 56.888889 17.066667 17.066667 45.511111 17.066667 62.577778 0L455.111111 287.28888900000004l324.266667 284.444444c17.066667 17.066667 45.511111 11.377778 62.577778-5.688889 17.066667-17.066667 11.377778-45.511111-5.688889-62.577777l-358.4-312.888889c-5.688889 0-11.377778-5.688889-22.755556-5.688889z"  horiz-adv-x="1024" />

    
    <glyph glyph-name="shopping-mall" unicode="&#58903;" d="M706.56 145.06666700000005m-159.288889 0a159.288889 159.288889 0 1 1 318.577778 0 159.288889 159.288889 0 1 1-318.577778 0ZM780.515556 338.488889c-51.2 0-102.4 34.133333-130.844445 73.955555-28.444444-39.822222-73.955556-73.955556-125.155555-73.955555s-102.4 34.133333-130.844445 73.955555c-28.444444-39.822222-73.955556-73.955556-130.844444-73.955555C171.804444 338.488889 97.848889 412.444444 97.848889 503.466667v5.688889L223.004444 799.288889h597.333334l125.155555-284.444445v-5.688888c0-96.711111-73.955556-170.666667-164.977777-170.666667zM615.537778 520.5333330000001h68.266666c0-51.2 39.822222-113.777778 91.022223-113.777777 51.2 0 91.022222 39.822222 91.022222 85.333333l-96.711111 233.244444H268.515556l-102.4-227.555555c5.688889-51.2 45.511111-85.333333 96.711111-85.333334 51.2 0 91.022222 62.577778 91.022222 113.777778h68.266667c0-51.2 39.822222-113.777778 91.022222-113.777778 62.577778 0 102.4 56.888889 102.4 108.088889z m153.6-568.888889H274.204444c-68.266667 0-125.155556 51.2-125.155555 119.466667V304.355556h68.266667v-233.244445c0-28.444444 22.755556-45.511111 51.2-45.511111h494.933333c28.444444 0 51.2 22.755556 51.2 45.511111V304.355556H894.293333v-233.244445c0-68.266667-56.888889-119.466667-125.155555-119.466667z"  horiz-adv-x="1024" />

    
    <glyph glyph-name="shopping" unicode="&#58904;" d="M846.506667 182.613333H211.626667L136.533333 711.6800000000001h665.6c58.026667 0 102.4-44.373333 102.4-102.4v-13.653333l-58.026666-413.013334zM262.826667 240.64h532.48l51.2 365.226667v6.826666c0 23.893333-20.48 44.373333-44.373334 44.373334H204.8l58.026667-416.426667zM163.84 660.48c-10.24 0-20.48 6.826667-23.893333 20.48l-10.24 75.093333c-3.413333 13.653333 6.826667 27.306667 20.48 27.306667 13.653333 3.413333 23.893333-6.826667 27.306666-20.48l13.653334-78.506667c0-10.24-10.24-20.48-20.48-23.893333h-6.826667zM651.946667 411.306667h-245.76c-17.066667 0-30.72 13.653333-30.72 30.72s13.653333 30.72 30.72 30.72h245.76c17.066667 0 27.306667-13.653333 27.306666-30.72s-10.24-30.72-27.306666-30.72zM341.333333 15.360000000000014c-54.613333 0-98.986667 44.373333-98.986666 95.573333s44.373333 95.573333 98.986666 95.573334 98.986667-44.373333 98.986667-95.573334-44.373333-95.573333-98.986667-95.573333z m0 136.533333c-20.48 0-37.546667-17.066667-37.546666-40.96s17.066667-40.96 37.546666-40.96 37.546667 17.066667 37.546667 40.96-17.066667 40.96-37.546667 40.96zM720.213333 15.360000000000014c-54.613333 0-95.573333 44.373333-95.573333 95.573333s44.373333 95.573333 95.573333 95.573334 95.573333-44.373333 95.573334-95.573334-40.96-95.573333-95.573334-95.573333z m0 136.533333c-20.48 0-40.96-17.066667-40.96-40.96s17.066667-40.96 40.96-40.96 40.96 17.066667 40.96 40.96-20.48 40.96-40.96 40.96z"  horiz-adv-x="1024" />

    
    <glyph glyph-name="shipped" unicode="&#58905;" d="M832-128H192c-108.8 0-192 83.2-192 192V832h1024v-768c0-108.8-83.2-192-192-192zM102.4 729.6V64c0-51.2 38.4-89.6 89.6-89.6h640c51.2 0 89.6 38.4 89.6 89.6V729.6H102.4zM512 12.799999999999955c-166.4 0-307.2 140.8-307.2 307.2 0 166.4 140.8 307.2 307.2 307.2 166.4 0 307.2-140.8 307.2-307.2 0-166.4-140.8-307.2-307.2-307.2z m0 512C396.8 524.8 307.2 435.2 307.2 320s89.6-204.8 204.8-204.8 204.8 89.6 204.8 204.8S627.2 524.8 512 524.8zM640 268.79999999999995H512c-25.6 0-51.2 25.6-51.2 51.2V448c0 25.6 25.6 51.2 51.2 51.2s51.2-25.6 51.2-51.2v-76.8H640c25.6 0 51.2-25.6 51.2-51.2s-25.6-51.2-51.2-51.2z"  horiz-adv-x="1024" />

    
    <glyph glyph-name="obligation" unicode="&#58906;" d="M780.8-64H243.2C108.8-64 0 44.799999999999955 0 179.20000000000005V588.8C0 723.2 108.8 832 243.2 832h544c128 0 236.8-108.8 236.8-243.2v-416c0-128-108.8-236.8-243.2-236.8zM243.2 736c-76.8 0-140.8-64-140.8-140.8v-416c0-76.8 64-140.8 140.8-140.8h544c76.8 0 140.8 64 140.8 140.8V588.8c0 76.8-64 140.8-140.8 140.8H243.2zM38.4 563.2h947.2v-96H38.4zM384 243.20000000000005H192c-25.6 0-51.2 19.2-51.2 51.2s25.6 38.4 51.2 38.4h192c25.6 0 51.2-19.2 51.2-51.2s-25.6-38.4-51.2-38.4zM448 115.20000000000005H192c-25.6 0-51.2 19.2-51.2 51.2s25.6 38.4 51.2 38.4h256c25.6 0 51.2-19.2 51.2-51.2s-25.6-38.4-51.2-38.4z"  horiz-adv-x="1024" />

    
    <glyph glyph-name="category" unicode="&#58907;" d="M575.015385 608.492308h256v-173.292308h-256zM575.015385 202.83076900000003h256v-153.6h-256zM145.723077 202.83076900000003h299.323077v-153.6H145.723077zM145.723077 608.492308h299.323077v-173.292308H145.723077zM764.061538 419.446154h-114.215384c-59.076923 0-110.276923 47.261538-110.276923 110.276923V643.938462c0 59.076923 47.261538 110.276923 110.276923 110.276923h114.215384c59.076923 0 110.276923-47.261538 110.276924-110.276923v-114.215385c-3.938462-63.015385-51.2-110.276923-110.276924-110.276923z m-114.215384 271.753846c-27.569231 0-47.261538-23.630769-47.261539-47.261538v-114.215385c0-27.569231 23.630769-47.261538 47.261539-47.261539h114.215384c27.569231 0 47.261538 23.630769 47.261539 47.261539V643.938462c0 27.569231-23.630769 47.261538-47.261539 47.261538h-114.215384zM764.061538 9.846153999999956h-114.215384c-59.076923 0-110.276923 47.261538-110.276923 110.276923v114.215385c0 59.076923 47.261538 110.276923 110.276923 110.276923h114.215384c59.076923 0 110.276923-47.261538 110.276924-110.276923v-114.215385c-3.938462-63.015385-51.2-110.276923-110.276924-110.276923z m-114.215384 271.753846c-27.569231 0-47.261538-23.630769-47.261539-47.261538v-114.215385c0-27.569231 23.630769-47.261538 47.261539-47.261539h114.215384c27.569231 0 47.261538 23.630769 47.261539 47.261539v114.215385c0 27.569231-23.630769 47.261538-47.261539 47.261538h-114.215384zM354.461538 9.846153999999956H240.246154c-59.076923 0-110.276923 47.261538-110.276923 110.276923v114.215385c0 59.076923 47.261538 110.276923 110.276923 110.276923H354.461538c59.076923 0 110.276923-47.261538 110.276924-110.276923v-114.215385c-3.938462-63.015385-51.2-110.276923-110.276924-110.276923z m-114.215384 271.753846c-27.569231 0-47.261538-23.630769-47.261539-47.261538v-114.215385c0-27.569231 23.630769-47.261538 47.261539-47.261539H354.461538c27.569231 0 47.261538 23.630769 47.261539 47.261539v114.215385c0 27.569231-23.630769 47.261538-47.261539 47.261538H240.246154zM354.461538 419.446154H240.246154c-59.076923 0-110.276923 47.261538-110.276923 110.276923V643.938462c0 59.076923 47.261538 110.276923 110.276923 110.276923H354.461538c59.076923 0 110.276923-47.261538 110.276924-110.276923v-114.215385c-3.938462-63.015385-51.2-110.276923-110.276924-110.276923zM240.246154 691.2c-27.569231 0-47.261538-23.630769-47.261539-47.261538v-114.215385c0-27.569231 23.630769-47.261538 47.261539-47.261539H354.461538c27.569231 0 47.261538 23.630769 47.261539 47.261539V643.938462c0 27.569231-23.630769 47.261538-47.261539 47.261538H240.246154z"  horiz-adv-x="1024" />

    
    <glyph glyph-name="edit" unicode="&#58908;" d="M320.853333 199.67999999999995c20.48-20.48 54.613333-20.48 75.093334 0l587.093333 587.093333c20.48 20.48 20.48 54.613333 0 75.093334-20.48 20.48-54.613333 20.48-75.093333 0L320.853333 274.773333c-20.48-20.48-20.48-54.613333 0-75.093333zM969.386667 465.92c-27.306667 0-54.613333-27.306667-54.613334-54.613333v-430.08H109.226667V786.773333h430.08c27.306667 0 54.613333 27.306667 54.613333 54.613334S566.613333 896 539.306667 896H54.613333C27.306667 896 0 875.52 0 841.386667v-914.773334c0-27.306667 27.306667-54.613333 54.613333-54.613333h914.773334c27.306667 0 54.613333 20.48 54.613333 54.613333V411.306667c0 27.306667-27.306667 54.613333-54.613333 54.613333z"  horiz-adv-x="1024" />

    
    <glyph glyph-name="picture" unicode="&#58909;" d="M838.892308 17.72307699999999H177.230769c-59.076923 0-110.276923 47.261538-110.276923 110.276923v326.892308c0 15.753846 11.815385 27.569231 31.507692 27.56923 15.753846 0 27.569231-11.815385 27.569231-31.507692v-326.892308c0-27.569231 23.630769-51.2 47.261539-51.2h657.723077c27.569231 0 47.261538 23.630769 47.261538 47.261539V620.307692c0 27.569231-23.630769 47.261538-47.261538 47.261539H177.230769c-27.569231 0-47.261538-19.692308-47.261538-47.261539v-7.876923c0-15.753846-11.815385-31.507692-27.569231-31.507692-19.692308 0-31.507692 15.753846-31.507692 31.507692V620.307692c0 59.076923 47.261538 110.276923 106.338461 110.276923h661.661539c59.076923 0 110.276923-47.261538 110.276923-110.276923v-496.246154c-3.938462-59.076923-51.2-106.338462-110.276923-106.338461zM98.461538 506.092308c-15.753846 0-31.507692 11.815385-31.507692 31.507692v19.692308c0 15.753846 11.815385 31.507692 31.507692 31.507692s31.507692-11.815385 31.507693-31.507692v-19.692308c0-19.692308-11.815385-31.507692-31.507693-31.507692zM322.953846 384c-47.261538 0-90.584615 39.384615-90.584615 90.584615s39.384615 90.584615 90.584615 90.584616 90.584615-39.384615 90.584616-90.584616-39.384615-90.584615-90.584616-90.584615z m0 122.092308c-15.753846 0-31.507692-15.753846-31.507692-31.507693s15.753846-31.507692 31.507692-31.507692 31.507692 15.753846 31.507692 31.507692-11.815385 31.507692-31.507692 31.507693zM263.876923 17.72307699999999c-7.876923 0-15.753846 3.938462-23.630769 11.815385-47.261538 59.076923 157.538462 256 161.476923 259.938461 74.830769 70.892308 122.092308 90.584615 153.6 63.015385 35.446154-31.507692 74.830769-82.707692 122.092308-165.415385 7.876923-15.753846 3.938462-31.507692-11.815385-39.384615s-31.507692-3.938462-39.384615 11.815384c-43.323077 70.892308-78.769231 118.153846-106.338462 145.723077-43.323077-11.815385-216.615385-189.046154-228.430769-248.123077 3.938462-11.815385 0-23.630769-11.815385-31.507692 0-7.876923-7.876923-7.876923-15.753846-7.876923zM917.661538 179.20000000000005c-11.815385 0-23.630769 7.876923-27.56923 19.692308-35.446154 82.707692-66.953846 145.723077-94.523077 185.107692 0 0-35.446154-3.938462-137.846154-173.292308-7.876923-15.753846-27.569231-19.692308-39.384615-11.815384-15.753846 7.876923-19.692308 27.569231-11.815385 39.384615 106.338462 177.230769 153.6 200.861538 189.046154 200.861539 19.692308 0 35.446154-7.876923 47.261538-27.569231 31.507692-43.323077 63.015385-110.276923 102.4-196.923077 7.876923-15.753846 0-31.507692-15.753846-39.384616-3.938462 3.938462-7.876923 3.938462-11.815385 3.938462z"  horiz-adv-x="1024" />

    
    <glyph glyph-name="shipping" unicode="&#58910;" d="M332.8 716.8c-12.8 0-19.2-6.4-19.2-12.8v-108.8c0-44.8-25.6-83.2-64-102.4l-192-96c-6.4 0-6.4-6.4-6.4-12.8v-236.8c0-6.4 6.4-12.8 12.8-12.8h851.2c6.4 0 12.8 6.4 12.8 12.8V704c0 6.4-6.4 12.8-12.8 12.8H332.8zM915.2 83.20000000000005H64c-38.4 0-64 32-64 64V390.4c0 19.2 12.8 44.8 38.4 57.6l192 96c19.2 12.8 38.4 32 38.4 57.6V704c0 38.4 25.6 64 64 64h582.4c38.4 0 64-25.6 64-64v-556.8c0-38.4-32-64-64-64zM96 179.20000000000005h787.2V672H364.8v-76.8c0-64-38.4-115.2-89.6-147.2L96 364.79999999999995v-185.6zM288 0c51.2 0 96 44.8 96 96 0 32-19.2 64-44.8 76.8-12.8 12.8-32 19.2-51.2 19.2-51.2 0-96-44.8-96-96S236.8 0 288 0zM288-51.200000000000045c-76.8 0-140.8 64-140.8 140.8s64 140.8 140.8 140.8c32 0 57.6-6.4 83.2-25.6 38.4-25.6 64-70.4 64-121.6 0-64-70.4-134.4-147.2-134.4z m0 192c-25.6 0-51.2-19.2-51.2-51.2s19.2-51.2 51.2-51.2 51.2 19.2 51.2 51.2c0 12.8-6.4 32-19.2 38.4-12.8 12.8-19.2 12.8-32 12.8zM736 96m-96 0a96 96 0 1 1 192 0 96 96 0 1 1-192 0ZM736-51.200000000000045c-76.8 0-140.8 64-140.8 140.8s64 140.8 140.8 140.8 140.8-64 140.8-140.8-64-140.8-140.8-140.8z m0 192c-25.6 0-51.2-19.2-51.2-51.2s19.2-51.2 51.2-51.2 51.2 19.2 51.2 51.2-25.6 51.2-51.2 51.2zM441.6 332.79999999999995H320c-25.6 0-51.2 19.2-51.2 51.2s25.6 44.8 51.2 44.8h76.8V512c0 25.6 19.2 51.2 51.2 51.2s44.8-25.6 44.8-51.2v-134.4c0-25.6-25.6-44.8-51.2-44.8z"  horiz-adv-x="1024" />

    
    <glyph glyph-name="error" unicode="&#58912;" d="M512 883.2C236.8 883.2 12.8 659.2 12.8 384s224-499.2 499.2-499.2 499.2 224 499.2 499.2S787.2 883.2 512 883.2z m211.2-646.4c19.2-19.2 19.2-44.8 0-64-19.2-19.2-44.8-19.2-64 0L512 320l-147.2-147.2c-19.2-19.2-44.8-19.2-64 0-19.2 19.2-19.2 44.8 0 64L448 384 300.8 531.2c-19.2 19.2-19.2 44.8 0 64 19.2 19.2 44.8 19.2 64 0L512 448l147.2 147.2c19.2 19.2 44.8 19.2 64 0 19.2-19.2 19.2-44.8 0-64L576 384l147.2-147.2z"  horiz-adv-x="1024" />

    
    <glyph glyph-name="icon-indent-ok1x" unicode="&#58913;" d="M896 256V672c0 108.8-83.2 192-192 192H256c-108.8 0-192-83.2-192-192v-576c0-108.8 83.2-192 192-192h339.2v102.4H256c-51.2 0-89.6 38.4-89.6 89.6v576c0 51.2 38.4 89.6 89.6 89.6h448c51.2 0 89.6-38.4 89.6-89.6V256H896z m0 416c0 108.8-83.2 192-192 192H256c-108.8 0-192-83.2-192-192v-576c0-108.8 83.2-192 192-192h339.2v102.4H256c-51.2 0-89.6 38.4-89.6 89.6v576c0 51.2 38.4 89.6 89.6 89.6h448c51.2 0 89.6-38.4 89.6-89.6V256H896V672zM889.6 179.2c19.2 25.6 51.2 25.6 70.4 12.8 25.6-19.2 25.6-51.2 12.8-70.4l-153.6-217.6c-19.2-25.6-44.8-25.6-70.4-12.8l-140.8 96c-25.6 12.8-32 44.8-12.8 70.4 12.8 25.6 44.8 32 70.4 12.8L768 0l121.6 179.2zM492.8 524.8H256c-25.6 0-51.2 25.6-51.2 51.2s25.6 51.2 51.2 51.2h236.8c25.6 0 51.2-25.6 51.2-51.2s-25.6-51.2-51.2-51.2zM492.8 396.8H256c-25.6 0-51.2 25.6-51.2 51.2s25.6 51.2 51.2 51.2h236.8c25.6 0 51.2-25.6 51.2-51.2s-25.6-51.2-51.2-51.2z"  horiz-adv-x="1024" />

    
    <glyph glyph-name="start" unicode="&#58893;" d="M873.642667 621.3546670000001l-93.098667-105.301334-129.066667 136.064 93.184 105.386667a42.154667 42.154667 0 0 0 63.274667 1.066667l64.512-68.053334c17.834667-18.773333 18.346667-49.706667 1.194667-69.12zM216.576 160.42666699999995L345.6 24.32000000000005l-168.021333-48.981333 38.954666 185.045333z m532.906667 320.554666l-372.608-421.504-129.024 136.106667 372.608 421.418667 129.024-136.021334z"  horiz-adv-x="1024" />

    
    <glyph glyph-name="top" unicode="&#59085;" d="M491 448.6L304.2 261.9 268 298.1 491 521l222.8-222.9-36.2-36.2z"  horiz-adv-x="1024" />

    
    <glyph glyph-name="donw" unicode="&#59086;" d="M547.8 334.20000000000005l186.8 186.7 36.2-36.2-223-222.9L325 484.7l36.2 36.2z"  horiz-adv-x="1024" />

    
    <glyph glyph-name="right" unicode="&#59087;" d="M705 383.9L518.3 570.7l36.3 36.2 222.8-223-222.8-222.8-36.2 36.2z"  horiz-adv-x="1024" />

    
    <glyph glyph-name="left" unicode="&#59088;" d="M429.7 287.5l186.7-186.8-36.2-36.1-222.9 222.9 222.9 222.8 36.2-36.2z"  horiz-adv-x="1024" />

    
    <glyph glyph-name="close" unicode="&#58990;" d="M811.776 123.477333l-235.093333 241.792 235.093333 240.896a29.013333 29.013333 0 0 1 0 41.301334 28.928 28.928 0 0 1-41.386667 0l-235.093333-240.341334-235.946667 240.341334a28.245333 28.245333 0 0 1-40.789333 0c-10.922667-11.648-11.52-30.250667 0-41.301334l235.306667-240.298666-243.072-242.346667a29.013333 29.013333 0 0 1 0-41.301333c11.52-11.648 29.866667-11.648 41.386666 0l243.072 241.792 235.690667-241.792c11.52-11.648 29.909333-11.648 40.832 0a30.08 30.08 0 0 1 0 41.258666z"  horiz-adv-x="1024" />

    


  </font>
</defs>
</svg>
